<mxfile host="app.diagrams.net" modified="2023-07-04T04:56:49.173Z" agent="Mozilla/5.0 (Windows NT 10.0; Win64; x64) AppleWebKit/537.36 (KHTML, like Gecko) Chrome/114.0.0.0 Safari/537.36" version="21.5.2" etag="8gjclU82Q42-mHcWZo9f" type="github">
  <diagram name="第 1 页" id="mfr8nm5_uggysV8jx1e2">
    <mxGraphModel>
      <root>
        <mxCell id="0" />
        <mxCell id="1" parent="0" />
      </root>
    </mxGraphModel>
  </diagram>
</mxfile>
